<svg width="129" height="74" viewBox="0 0 129 74" fill="none" xmlns="http://www.w3.org/2000/svg">
<g clip-path="url(#clip0_106_56)">
<g filter="url(#filter0_d_106_56)">
<path d="M0 15.7C0 10.3823 0 7.72347 0.985449 5.67127C1.96942 3.62216 3.62216 1.96942 5.67127 0.985449C7.72347 0 10.3823 0 15.7 0H113.3C118.618 0 121.277 0 123.329 0.985449C125.378 1.96942 127.031 3.62216 128.015 5.67127C129 7.72347 129 10.3823 129 15.7V58.3C129 63.6177 129 66.2765 128.015 68.3287C127.031 70.3778 125.378 72.0306 123.329 73.0146C121.277 74 118.618 74 113.3 74H15.7C10.3823 74 7.72347 74 5.67127 73.0146C3.62216 72.0306 1.96942 70.3778 0.985449 68.3287C0 66.2765 0 63.6177 0 58.3V15.7Z" fill="url(#paint0_radial_106_56)" shape-rendering="crispEdges"/>
</g>
<g filter="url(#filter1_d_106_56)">
<path d="M41.0052 22.7457C35.4623 22.732 29.6909 24.8368 24.1677 27.9809C12.5767 34.579 -6 27.4312 -6 14.0938C-6 6.36185 0.268013 0 8 0H119.697C128.92 0 135.481 8.73086 132.131 17.3241C124.716 36.3475 110.523 64.3161 90.9948 64.9876C66.2951 65.8369 65.7171 22.8065 41.0052 22.7457Z" fill="url(#paint1_radial_106_56)" shape-rendering="crispEdges"/>
</g>
</g>
<defs>
<filter id="filter0_d_106_56" x="-4" y="0" width="137" height="82" filterUnits="userSpaceOnUse" color-interpolation-filters="sRGB">
<feFlood flood-opacity="0" result="BackgroundImageFix"/>
<feColorMatrix in="SourceAlpha" type="matrix" values="0 0 0 0 0 0 0 0 0 0 0 0 0 0 0 0 0 0 127 0" result="hardAlpha"/>
<feOffset dy="4"/>
<feGaussianBlur stdDeviation="2"/>
<feComposite in2="hardAlpha" operator="out"/>
<feColorMatrix type="matrix" values="0 0 0 0 0 0 0 0 0 0 0 0 0 0 0 0 0 0 0.25 0"/>
<feBlend mode="normal" in2="BackgroundImageFix" result="effect1_dropShadow_106_56"/>
<feBlend mode="normal" in="SourceGraphic" in2="effect1_dropShadow_106_56" result="shape"/>
</filter>
<filter id="filter1_d_106_56" x="-10" y="0" width="147.019" height="73" filterUnits="userSpaceOnUse" color-interpolation-filters="sRGB">
<feFlood flood-opacity="0" result="BackgroundImageFix"/>
<feColorMatrix in="SourceAlpha" type="matrix" values="0 0 0 0 0 0 0 0 0 0 0 0 0 0 0 0 0 0 127 0" result="hardAlpha"/>
<feOffset dy="4"/>
<feGaussianBlur stdDeviation="2"/>
<feComposite in2="hardAlpha" operator="out"/>
<feColorMatrix type="matrix" values="0 0 0 0 0 0 0 0 0 0 0 0 0 0 0 0 0 0 0.25 0"/>
<feBlend mode="normal" in2="BackgroundImageFix" result="effect1_dropShadow_106_56"/>
<feBlend mode="normal" in="SourceGraphic" in2="effect1_dropShadow_106_56" result="shape"/>
</filter>
<radialGradient id="paint0_radial_106_56" cx="0" cy="0" r="1" gradientUnits="userSpaceOnUse" gradientTransform="translate(2 1.99999) rotate(29.3468) scale(142.829 248.986)">
<stop stop-color="#57BBC9" stop-opacity="0.61"/>
<stop offset="0.457905" stop-color="#3BCBCB" stop-opacity="0.715318"/>
<stop offset="1" stop-color="#58F85F" stop-opacity="0.84"/>
</radialGradient>
<radialGradient id="paint1_radial_106_56" cx="0" cy="0" r="1" gradientUnits="userSpaceOnUse" gradientTransform="translate(173.067 -37.3679) rotate(156.768) scale(226.534 580.435)">
<stop stop-color="#5CEE7C"/>
<stop offset="1" stop-color="#00EEEE" stop-opacity="0"/>
</radialGradient>
<clipPath id="clip0_106_56">
<rect width="129" height="74" rx="10" fill="white"/>
</clipPath>
</defs>
</svg>
